<svg width="25" height="24" viewBox="0 0 25 24" fill="none" xmlns="http://www.w3.org/2000/svg">
<path d="M3.59102 1.09224C4.73945 1.09224 5.67227 2.02505 5.67227 3.17349C5.67227 4.32192 4.73945 5.25474 3.59102 5.25474C2.44258 5.25474 1.50977 4.32661 1.50977 3.17817C1.50977 2.02505 2.44258 1.09692 3.59102 1.09224ZM3.59102 0.0891113C1.88477 0.0891113 0.501953 1.47192 0.501953 3.17817C0.501953 4.88442 1.88477 6.26724 3.59102 6.26724C5.29727 6.26724 6.68008 4.88442 6.68008 3.17817C6.68008 1.47192 5.29727 0.0891113 3.59102 0.0891113Z" fill="#1C4587"/>
<path d="M23.0861 1.44849C23.3111 1.44849 23.4986 1.6313 23.4986 1.86099V4.49536C23.4986 4.72036 23.3158 4.90786 23.0861 4.90786H11.358C11.133 4.90786 10.9455 4.72505 10.9455 4.49536V1.8563C10.9455 1.6313 11.1283 1.4438 11.358 1.4438H23.0861M23.0861 0.440674H11.358C10.5752 0.440674 9.94238 1.07349 9.94238 1.8563V4.49067C9.94238 5.27349 10.5752 5.9063 11.358 5.9063H23.0814C23.8643 5.9063 24.4971 5.27349 24.4971 4.49067V1.8563C24.5018 1.07349 23.8689 0.440674 23.0861 0.440674Z" fill="#1C4587"/>
<path d="M3.59102 9.9187C4.73945 9.9187 5.67227 10.8515 5.67227 12C5.67227 13.1484 4.73945 14.0812 3.59102 14.0859C2.44258 14.0906 1.50977 13.1531 1.50508 12C1.50977 10.8515 2.44258 9.9187 3.59102 9.9187ZM3.59102 8.91089C1.88477 8.91089 0.501953 10.2937 0.501953 12C0.501953 13.7062 1.88477 15.089 3.59102 15.089C5.29727 15.089 6.68008 13.7062 6.68008 12C6.68008 10.2937 5.29727 8.91089 3.59102 8.91089Z" fill="#1C4587"/>
<path d="M23.0861 10.2705C23.3111 10.2705 23.4986 10.4533 23.4986 10.683V13.322C23.4986 13.547 23.3158 13.7345 23.0861 13.7345H11.358C11.133 13.7345 10.9455 13.5517 10.9455 13.322V10.6876C10.9455 10.4626 11.1283 10.2751 11.358 10.2751L23.0861 10.2705ZM23.0861 9.26733H11.358C10.5752 9.26733 9.94238 9.90015 9.94238 10.683V13.322C9.94238 14.1048 10.5752 14.7376 11.358 14.7376H23.0814C23.8643 14.7376 24.4971 14.1048 24.4971 13.322V10.6876C24.5018 9.90015 23.8689 9.26733 23.0861 9.26733Z" fill="#1C4587"/>
<path d="M3.59102 18.7407C4.73945 18.7407 5.67227 19.6735 5.67227 20.8219C5.67227 21.9704 4.73945 22.9032 3.59102 22.9079C2.44258 22.9126 1.50977 21.9751 1.50977 20.8266C1.50977 19.6735 2.44258 18.7407 3.59102 18.7407ZM3.59102 17.7376C1.88477 17.7329 0.501953 19.1157 0.501953 20.8219C0.501953 22.5282 1.88477 23.911 3.59102 23.911C5.29727 23.911 6.68008 22.5282 6.68008 20.8219C6.68008 19.1157 5.29727 17.7376 3.59102 17.7376Z" fill="#1C4587"/>
<path d="M23.0861 19.0922C23.3111 19.0922 23.4986 19.275 23.4986 19.5047V22.1438C23.4986 22.3688 23.3158 22.5563 23.0861 22.5563H11.358C11.133 22.5563 10.9455 22.3735 10.9455 22.1438V19.5047C10.9455 19.2797 11.1283 19.0922 11.358 19.0922H23.0861ZM23.0861 18.0891H11.358C10.5752 18.0891 9.94238 18.7219 9.94238 19.5047V22.1438C9.94238 22.9266 10.5752 23.5594 11.358 23.5594H23.0814C23.8643 23.5594 24.4971 22.9266 24.4971 22.1438V19.5047C24.5018 18.7219 23.8689 18.0891 23.0861 18.0891Z" fill="#1C4587"/>
</svg>
