<svg width="19" height="18" viewBox="0 0 19 18" fill="none" xmlns="http://www.w3.org/2000/svg">
<path d="M7.69141 9.5H1.69141C1.41755 9.5 1.19141 9.27386 1.19141 9V1C1.19141 0.726142 1.41755 0.5 1.69141 0.5H7.69141C7.96526 0.5 8.19141 0.726142 8.19141 1V9C8.19141 9.27386 7.96526 9.5 7.69141 9.5ZM7.69141 17.5H1.69141C1.41755 17.5 1.19141 17.2739 1.19141 17V13C1.19141 12.7261 1.41755 12.5 1.69141 12.5H7.69141C7.96526 12.5 8.19141 12.7261 8.19141 13V17C8.19141 17.2739 7.96526 17.5 7.69141 17.5ZM17.6914 17.5H11.6914C11.4175 17.5 11.1914 17.2739 11.1914 17V9C11.1914 8.72614 11.4175 8.5 11.6914 8.5H17.6914C17.9653 8.5 18.1914 8.72614 18.1914 9V17C18.1914 17.2739 17.9653 17.5 17.6914 17.5ZM11.1914 5V1C11.1914 0.726142 11.4175 0.5 11.6914 0.5H17.6914C17.9653 0.5 18.1914 0.726143 18.1914 1V5C18.1914 5.27386 17.9653 5.5 17.6914 5.5H11.6914C11.4175 5.5 11.1914 5.27386 11.1914 5Z" fill="white" stroke="#1C4587"/>
</svg>
