<svg width="25" height="24" viewBox="0 0 25 24" fill="none" xmlns="http://www.w3.org/2000/svg">
<path d="M12.75 22.75C8.75 22.75 5.5 19.88 5.5 16.35V12.65C5.5 12.24 5.84 11.9 6.25 11.9C6.66 11.9 7 12.24 7 12.65C7 15.27 9.47 17.25 12.75 17.25C16.03 17.25 18.5 15.27 18.5 12.65C18.5 12.24 18.84 11.9 19.25 11.9C19.66 11.9 20 12.24 20 12.65V16.35C20 19.88 16.75 22.75 12.75 22.75ZM7 16.46C7.07 19.11 9.62 21.25 12.75 21.25C15.88 21.25 18.43 19.11 18.5 16.46C17.2 17.87 15.14 18.75 12.75 18.75C10.36 18.75 8.31 17.87 7 16.46Z" fill="#292D32"/>
<path d="M12.75 13.75C9.99 13.75 7.50999 12.51 6.29999 10.51C5.77999 9.66 5.5 8.67 5.5 7.65C5.5 5.93 6.27 4.31 7.66 3.09C9.02 1.9 10.83 1.25 12.75 1.25C14.67 1.25 16.47 1.9 17.84 3.08C19.23 4.31 20 5.93 20 7.65C20 8.67 19.72 9.65 19.2 10.51C17.99 12.51 15.51 13.75 12.75 13.75ZM12.75 2.75C11.19 2.75 9.73001 3.27 8.64001 4.23C7.58001 5.15 7 6.37 7 7.65C7 8.4 7.19999 9.1 7.57999 9.73C8.52999 11.29 10.51 12.25 12.75 12.25C14.99 12.25 16.97 11.28 17.92 9.73C18.31 9.1 18.5 8.4 18.5 7.65C18.5 6.37 17.92 5.15 16.85 4.21C15.76 3.27 14.31 2.75 12.75 2.75Z" fill="#292D32"/>
<path d="M12.75 18.75C8.62 18.75 5.5 16.13 5.5 12.65V7.65C5.5 4.12 8.75 1.25 12.75 1.25C14.67 1.25 16.47 1.9 17.84 3.08C19.23 4.31 20 5.93 20 7.65V12.65C20 16.13 16.88 18.75 12.75 18.75ZM12.75 2.75C9.58 2.75 7 4.95 7 7.65V12.65C7 15.27 9.47 17.25 12.75 17.25C16.03 17.25 18.5 15.27 18.5 12.65V7.65C18.5 6.37 17.92 5.15 16.85 4.21C15.76 3.27 14.31 2.75 12.75 2.75Z" fill="#292D32"/>
</svg>
