<svg width="33" height="30" viewBox="0 0 33 30" fill="none" xmlns="http://www.w3.org/2000/svg">
<path fill-rule="evenodd" clip-rule="evenodd" d="M4.765 27.2671V27.8208C4.765 28.3978 4.29294 28.8699 3.71594 28.8699L1.79919 28.8697C1.22225 28.8697 0.750188 28.3976 0.750188 27.8207L0.75 19.5307C0.75 18.9537 1.22206 18.4816 1.79906 18.4816L3.71619 18.4818C4.29312 18.482 4.76519 18.9541 4.76519 19.531V20.0821H10.2397C10.2914 20.0821 10.3419 20.0981 10.3841 20.128L15.8542 23.9963C15.8598 24.0003 15.8651 24.0044 15.8703 24.0088C16.033 24.1449 16.1686 24.3006 16.2766 24.4678L17.676 23.6464C16.0719 23.4559 14.5403 22.6537 13.4615 21.2847C11.3034 18.546 11.7741 14.5764 14.5126 12.4184C14.8182 12.1776 15.1392 11.9694 15.4712 11.7936L17.8371 8.15714C17.8564 8.12745 17.8818 8.1022 17.9116 8.08307L24.0544 4.14032L22.4366 3.32351C22.3133 3.26126 22.2639 3.11089 22.3261 2.98764L23.7511 0.165197C23.8134 0.0419473 23.9637 -0.00749021 24.0869 0.0546973L32.6127 4.35932C32.7359 4.42157 32.7854 4.57189 32.7232 4.69514L31.2981 7.51757C31.2359 7.64082 31.0856 7.69032 30.9623 7.62807L29.6078 6.9442L27.1226 11.8668C27.0993 11.9129 27.0623 11.9507 27.0166 11.9749L23.6104 13.782C25.4537 16.4383 24.988 20.0808 22.512 22.1851C22.6417 22.295 22.7539 22.4266 22.8431 22.5784L22.8433 22.5788C22.8584 22.6045 22.8726 22.6306 22.8859 22.6569C23.7241 22.3249 24.6617 22.5914 25.0805 23.3046L25.0806 23.3048C25.2606 23.6118 25.3221 23.9607 25.278 24.3048L25.3356 24.2813C26.3022 23.8879 27.3709 24.2861 27.7191 25.1411C28.067 25.9963 27.5802 27.0273 26.6136 27.4211L20.3924 29.9537C20.3624 29.9659 20.3304 29.9721 20.2981 29.9721L11.4365 29.9719C11.4041 29.9719 11.3719 29.9656 11.3419 29.9533L4.765 27.2671ZM4.26506 26.8903L4.26519 19.531C4.26519 19.229 4.01806 18.982 3.71606 18.9818L1.79906 18.9816C1.49706 18.9816 1.25 19.2287 1.25 19.5307L1.25019 27.8207C1.25019 28.1226 1.49725 28.3697 1.79919 28.3697L3.716 28.3699C4.01794 28.3699 4.265 28.1228 4.265 27.8208L4.26506 26.8992C4.265 26.8963 4.265 26.8933 4.26506 26.8903ZM18.592 23.6884L16.4946 24.9196C16.6143 25.2813 16.6209 25.6624 16.509 26.006L17.3356 25.886L22.4426 22.8882C22.433 22.8691 22.4228 22.8501 22.4119 22.8315C22.3335 22.6981 22.2286 22.5881 22.1059 22.503C21.0445 23.2675 19.8181 23.6561 18.592 23.6884ZM16.0566 24.5969C16.0341 24.6101 16.0164 24.6243 16.0027 24.6395C16.0184 24.6231 16.0364 24.6088 16.0566 24.5969ZM15.9641 24.9343C15.9613 24.9293 15.9586 24.9241 15.9561 24.9188C15.8664 24.7269 15.7329 24.5476 15.5569 24.3985L10.1602 20.5821H4.76512L4.76506 26.727L11.4856 29.4719L20.2491 29.4721L26.425 26.958C27.1224 26.6739 27.507 25.9467 27.2559 25.3296C27.0047 24.7128 26.2214 24.4606 25.5241 24.7445L25.0063 24.9552C25.0018 24.9574 24.9971 24.9594 24.9924 24.9614L19.8268 27.0638C19.7969 27.076 19.7649 27.0823 19.7326 27.0823H14.9935V27.0818C14.9934 27.0818 14.9933 27.0818 14.9931 27.0818C14.9934 27.0821 14.9935 27.0823 14.9935 27.0823C14.9935 27.0823 14.9921 27.0821 14.9895 27.0818C14.5507 27.0867 14.0896 26.9341 13.7066 26.6185L10.1048 24.3117C9.98863 24.2373 9.95469 24.0826 10.0291 23.9664C10.1035 23.8502 10.2583 23.8163 10.3744 23.8907L13.9892 26.2058C13.9981 26.2115 14.0066 26.2178 14.0147 26.2245C14.3052 26.4676 14.6557 26.587 14.9896 26.5818C14.9944 26.5816 14.9993 26.5817 15.0041 26.582C15.3274 26.5733 15.634 26.4461 15.8427 26.1968C16.1331 25.85 16.1576 25.3607 15.9641 24.9343ZM15.7463 12.2141C15.4257 12.3805 15.1162 12.5793 14.8221 12.8111C12.3004 14.7983 11.867 18.4534 13.8542 20.9752C15.82 23.4697 19.418 23.9206 21.9364 22.0066C21.9382 22.0051 21.9401 22.0037 21.9419 22.0023C21.9676 21.9828 21.993 21.9631 22.0184 21.9431C24.4615 20.0179 24.9444 16.5272 23.1653 14.0181L21.9602 14.6574C23.4473 16.5922 23.1052 19.3686 21.1832 20.8832C19.2468 22.4091 16.4401 22.0764 14.9142 20.1399C13.3883 18.2036 13.721 15.3969 15.6574 13.871C16.7692 12.9948 18.1677 12.7315 19.4461 13.0326C19.5926 12.5854 19.9405 12.1846 20.4342 11.9672L20.4802 11.94C18.9715 11.3701 17.2559 11.4397 15.7721 12.2007C15.7638 12.2057 15.7551 12.2101 15.7463 12.2141ZM24.5725 4.40189L18.2269 8.47482L16.3067 11.4263C17.8501 10.8779 19.5445 10.9578 21.0187 11.6219L23.7457 10.0108C23.8645 9.94064 24.0179 9.98007 24.0881 10.0989C24.1582 10.2177 24.1188 10.3711 24 10.4413L20.6752 12.4055C20.6661 12.4109 20.6567 12.4157 20.6469 12.4199C20.2276 12.6004 19.9414 12.9628 19.8796 13.3469C19.8791 13.3642 19.8768 13.3817 19.8726 13.3991C19.8557 13.556 19.8767 13.7153 19.9416 13.8661C20.1722 14.4021 20.8609 14.6088 21.4678 14.3527L23.1164 13.478C23.1199 13.4761 23.1234 13.4743 23.1269 13.4724L26.7121 11.5705L29.1614 6.71882L24.5725 4.40189ZM29.6161 6.38826L30.9645 7.06907L32.1641 4.69295L24.0847 0.61376L22.8851 2.98982C22.8851 2.98982 24.6709 3.89145 24.6713 3.89164L29.6039 6.38207C29.6059 6.38307 29.6079 6.38407 29.61 6.38507C29.6121 6.38614 29.6141 6.3872 29.6161 6.38826ZM24.7068 24.5378C24.8308 24.2133 24.8247 23.857 24.6493 23.5578C24.3161 22.9903 23.5199 22.851 22.8748 23.2152C22.8694 23.2183 22.8639 23.2211 22.8584 23.2237C22.856 23.2252 22.8536 23.2266 22.8512 23.2281L17.5465 26.3419C17.5186 26.3583 17.4879 26.3691 17.4559 26.3737L16.1917 26.5574C16.1842 26.5658 16.1766 26.5741 16.1689 26.5823H19.6836L24.7068 24.5378ZM21.4949 14.8749C20.6681 15.1361 19.7931 14.7861 19.4823 14.0637C19.4081 13.8912 19.3714 13.7099 19.369 13.5283C18.2236 13.2468 16.9651 13.4771 15.9668 14.2637C14.2474 15.6187 13.9519 18.1111 15.3069 19.8305C16.6619 21.55 19.1543 21.8454 20.8737 20.4905C22.5933 19.1354 22.8888 16.6431 21.5338 14.9236C21.5209 14.9073 21.5079 14.8911 21.4949 14.8749ZM3.97894 26.5894C3.97894 27.2635 3.43169 27.8106 2.75763 27.8106C2.08363 27.8106 1.53637 27.2635 1.53637 26.5894C1.53637 25.9154 2.08363 25.3681 2.75763 25.3681C3.43169 25.3681 3.97894 25.9154 3.97894 26.5894ZM3.47894 26.5894C3.47894 26.1913 3.15575 25.8681 2.75763 25.8681C2.35956 25.8681 2.03638 26.1913 2.03638 26.5894C2.03638 26.9874 2.35956 27.3106 2.75763 27.3106C3.15575 27.3106 3.47894 26.9874 3.47894 26.5894ZM18.5749 17.5735C17.9399 18.0739 17.1094 18.0351 16.7197 17.5405C16.3712 17.0983 16.4593 16.3984 16.9359 15.8975L16.5913 15.4603C16.5059 15.3519 16.5246 15.1946 16.6329 15.1092C16.7413 15.0238 16.8986 15.0424 16.9841 15.1508L17.3286 15.5881C17.9271 15.2418 18.6283 15.3196 18.9767 15.7619C19.0621 15.8703 19.0435 16.0276 18.9351 16.1129C18.8267 16.1984 18.6694 16.1797 18.584 16.0713C18.3416 15.7637 17.8258 15.8103 17.4307 16.1216C17.0358 16.4328 16.8699 16.9234 17.1124 17.231C17.3548 17.5386 17.8705 17.4921 18.2654 17.1808C18.9004 16.6804 19.7312 16.7193 20.1209 17.2138C20.4694 17.6561 20.3812 18.356 19.9046 18.8569L20.2491 19.2941C20.3345 19.4025 20.3159 19.5598 20.2075 19.6452C20.0991 19.7306 19.9418 19.712 19.8564 19.6036L19.5119 19.1664C18.9134 19.5127 18.2124 19.4348 17.8638 18.9924C17.7784 18.8841 17.7971 18.7268 17.9054 18.6413C18.0138 18.5559 18.1712 18.5746 18.2566 18.6829C18.4976 18.9888 19.0087 18.9447 19.4028 18.6384C19.405 18.6364 19.4073 18.6346 19.4096 18.6328C19.4119 18.6309 19.4143 18.6291 19.4167 18.6274C19.8067 18.3159 19.9692 17.8291 19.7282 17.5233C19.4858 17.2156 18.9699 17.2623 18.5749 17.5735ZM15.1546 3.85614C16.7989 5.50039 16.7817 8.21089 15.1132 9.87945L8.95063 16.0418C8.853 16.1395 8.69469 16.1395 8.59706 16.0418L2.43469 9.87945C0.766062 8.21089 0.748875 5.50039 2.39313 3.85614C4.0375 2.21176 6.748 2.22895 8.4165 3.89745L8.77394 4.25476L9.13131 3.89745C10.7999 2.22895 13.5103 2.21176 15.1546 3.85614ZM14.8011 4.2097C13.3498 2.75832 10.9576 2.77839 9.48481 4.25101L8.95069 4.78507C8.85306 4.8827 8.69481 4.8827 8.59719 4.78507L8.06294 4.25101C6.59031 2.77839 4.198 2.75832 2.74669 4.2097C1.29544 5.66095 1.3155 8.0532 2.78819 9.52589L8.77388 15.5115L14.7597 9.52589C16.2323 8.0532 16.2524 5.66095 14.8011 4.2097Z" fill="black"/>
</svg>
