<svg width="114" height="44" viewBox="0 0 114 44" fill="none" xmlns="http://www.w3.org/2000/svg">
<path d="M113.001 22C113.001 24.5222 111.625 27.0485 108.863 29.4677C106.103 31.8853 102.051 34.108 96.9586 35.9947C86.7809 39.7654 72.6538 42.1177 57.0006 42.1177C41.3473 42.1177 27.2202 39.7654 17.0425 35.9947C11.9498 34.108 7.89831 31.8853 5.13828 29.4677C2.37631 27.0485 1 24.5222 1 22C1 19.4778 2.37631 16.9515 5.13828 14.5323C7.89831 12.1147 11.9498 9.89202 17.0425 8.00526C27.2202 4.23461 41.3473 1.88232 57.0006 1.88232C72.6538 1.88232 86.7809 4.23461 96.9586 8.00526C102.051 9.89202 106.103 12.1147 108.863 14.5323C111.625 16.9515 113.001 19.4778 113.001 22Z" stroke="#1C4587" stroke-width="2"/>
<path d="M22.8496 21.9999C22.8496 25.4217 20.0756 28.1956 16.6538 28.1956C13.232 28.1956 10.458 25.4217 10.458 21.9999C10.458 18.578 13.232 15.8041 16.6538 15.8041C20.0756 15.8041 22.8496 18.578 22.8496 21.9999Z" fill="#22B14C" stroke="#1C4587"/>
<path d="M103.543 22C103.543 25.4218 100.769 28.1958 97.3472 28.1958C93.9253 28.1958 91.1514 25.4218 91.1514 22C91.1514 18.5781 93.9253 15.8042 97.3472 15.8042C100.769 15.8042 103.543 18.5781 103.543 22Z" fill="#ED1C24" stroke="#1C4587"/>
<rect x="30.7168" y="16.8344" width="52.5663" height="9.98795" rx="4.99398" fill="#FFF200" stroke="#1C4587"/>
</svg>
