<svg width="25" height="24" viewBox="0 0 25 24" fill="none" xmlns="http://www.w3.org/2000/svg">
<path fill-rule="evenodd" clip-rule="evenodd" d="M10.3331 15.2063C6.48905 15.2063 3.20605 15.7873 3.20605 18.1153C3.20605 20.4433 6.46905 21.0453 10.3331 21.0453C14.1781 21.0453 17.4601 20.4633 17.4601 18.1363C17.4601 15.8093 14.1981 15.2063 10.3331 15.2063Z" stroke="#1C4587" stroke-width="1.5" stroke-linecap="round" stroke-linejoin="round"/>
<path fill-rule="evenodd" clip-rule="evenodd" d="M10.3327 11.886C12.8557 11.886 14.9007 9.841 14.9007 7.318C14.9007 4.795 12.8557 2.75 10.3327 2.75C7.81065 2.75 5.76565 4.795 5.76565 7.318C5.75665 9.832 7.78665 11.877 10.3017 11.886H10.3327Z" stroke="#1C4587" stroke-width="1.5" stroke-linecap="round" stroke-linejoin="round"/>
<path d="M19.6602 8.66919V12.6792" stroke="#1C4587" stroke-width="1.5" stroke-linecap="round" stroke-linejoin="round"/>
<path d="M21.7062 10.6741H17.6162" stroke="#1C4587" stroke-width="1.5" stroke-linecap="round" stroke-linejoin="round"/>
</svg>
