<svg width="21" height="24" viewBox="0 0 21 24" fill="none" xmlns="http://www.w3.org/2000/svg">
<path d="M18.8479 4.92305V4.62738C18.8479 4.55707 18.8175 4.48986 18.7644 4.44362L13.7498 0.0604144C13.7041 0.0206105 13.6501 -0.00179418 13.584 0.000112582L13.5335 0.0011852C13.5317 0.00112561 13.5302 0.000112626 13.5283 0.000112626C13.5255 5.30764e-05 13.5234 0.00145333 13.5207 0.00148315L4.01039 0.204853C2.22171 0.243227 0.766602 1.7298 0.766602 3.51883V22.0923C0.766602 23.1441 1.62239 24 2.67433 24H15.5333C17.3609 24 18.8479 22.513 18.8479 20.6853V4.94427C18.848 4.94057 18.85 4.93741 18.85 4.93366C18.85 4.92991 18.848 4.92675 18.8479 4.92305ZM14.6972 3.44876C14.8932 3.64992 15.1705 3.73311 15.3686 3.76767C15.6421 3.81534 15.9378 3.80413 16.224 3.79436C16.36 3.78197 16.4719 3.8947 16.4768 4.02937C16.4817 4.16404 16.3763 4.27725 16.2416 4.28202C16.1137 4.28679 15.9839 4.29155 15.8528 4.29155C15.6654 4.29155 15.4755 4.28178 15.2849 4.24865C14.8989 4.18144 14.5748 4.02246 14.3475 3.78936C14.0839 3.51835 13.9278 3.1196 13.9077 2.66579C13.8908 2.283 13.9648 1.91571 14.0362 1.56081C14.0629 1.42877 14.1916 1.34201 14.3237 1.36966C14.4558 1.39635 14.5414 1.52506 14.5148 1.6571C14.449 1.9834 14.3811 2.3209 14.3954 2.64434C14.4101 2.97826 14.5173 3.2638 14.6972 3.44876ZM16.7835 3.9612C16.7835 3.8263 16.8928 3.71714 17.0276 3.71714H17.0793C17.2141 3.71714 17.3234 3.8263 17.3234 3.9612C17.3234 4.09611 17.2141 4.20527 17.0793 4.20527H17.0276C16.8928 4.20527 16.7835 4.09611 16.7835 3.9612ZM15.5333 23.5119H2.67433C1.8916 23.5119 1.25474 22.875 1.25474 22.0923V3.51883C1.25474 1.99317 2.49557 0.725641 4.02087 0.692987L13.2827 0.494802L13.2737 3.33578C13.2718 3.82725 13.4618 4.28965 13.8086 4.63787C14.1554 4.9861 14.6171 5.17773 15.1084 5.17773H18.3597V20.6853C18.3597 22.2439 17.0918 23.5119 15.5333 23.5119Z" fill="#1C4587"/>
<path d="M14.3541 13.6346C14.4889 13.6346 14.5982 13.5255 14.5982 13.3906C14.5982 13.2556 14.4889 13.1465 14.3541 13.1465H3.08098C2.9462 13.1465 2.83691 13.2556 2.83691 13.3906C2.83691 13.5255 2.9462 13.6346 3.08098 13.6346H14.3541Z" fill="#1C4587"/>
<path d="M3.2929 17.006H12.0818C12.2166 17.006 12.3259 16.8968 12.3259 16.7619C12.3259 16.627 12.2166 16.5178 12.0818 16.5178H3.2929C3.15811 16.5178 3.04883 16.627 3.04883 16.7619C3.04883 16.8968 3.15811 17.006 3.2929 17.006Z" fill="#1C4587"/>
<path d="M15.7271 19.7302H3.32805C3.19327 19.7302 3.08398 19.8394 3.08398 19.9743C3.08398 20.1092 3.19327 20.2184 3.32805 20.2184H15.7271C15.8619 20.2184 15.9712 20.1092 15.9712 19.9743C15.9712 19.8394 15.8619 19.7302 15.7271 19.7302Z" fill="#1C4587"/>
<path d="M19.9902 6.27686C19.8554 6.27686 19.7461 6.38602 19.7461 6.52092V9.05551C19.7461 9.19041 19.8554 9.29957 19.9902 9.29957C20.1249 9.29957 20.2342 9.19041 20.2342 9.05551V6.52092C20.2342 6.38602 20.1249 6.27686 19.9902 6.27686Z" fill="#1C4587"/>
<path d="M19.9902 9.85034C19.8554 9.85034 19.7461 9.9595 19.7461 10.0944V10.337C19.7461 10.472 19.8554 10.5811 19.9902 10.5811C20.1249 10.5811 20.2342 10.472 20.2342 10.337V10.0944C20.2342 9.9595 20.1249 9.85034 19.9902 9.85034Z" fill="#1C4587"/>
<path d="M7.23003 10.2783C7.90861 10.2783 8.58337 10.0981 9.15099 9.72416C10.1722 9.04976 10.7629 8.08722 10.8405 7.03248C11.2366 6.99413 11.5573 6.69399 11.6168 6.28553C11.782 5.15624 11.3451 3.96283 10.4768 3.17081C9.66189 2.42764 8.62198 2.16141 7.54894 2.4212C7.17536 2.51133 6.9137 2.84481 6.90311 3.23635C5.73555 3.32823 4.69949 4.03046 4.10983 5.17507C3.41338 6.52697 3.56449 8.07027 4.49512 9.10684C5.18382 9.87241 6.21134 10.2783 7.23003 10.2783ZM4.54374 5.39864C4.94828 4.61358 5.75888 3.82608 6.90111 3.72294V6.48049C6.90111 6.78915 7.15233 7.04013 7.46099 7.04013H10.3478C10.2653 7.92839 9.75425 8.74077 8.88237 9.31659C7.6562 10.1243 5.85048 9.88385 4.85824 8.78054C4.06431 7.89628 3.94096 6.56892 4.54374 5.39864Z" fill="#1C4587"/>
<path d="M6.21557 8.7232C6.24548 8.73512 6.27623 8.74084 6.3065 8.74084C6.40327 8.74084 6.4948 8.68292 6.53305 8.58782C6.58334 8.46269 6.52268 8.32063 6.39767 8.27034C5.86663 8.05678 5.45977 7.55482 5.3611 6.99113C5.26254 6.42744 5.47479 5.81703 5.90191 5.43592C6.00249 5.34606 6.01119 5.19185 5.92145 5.09127C5.83159 4.99092 5.67738 4.98186 5.5768 5.07172C5.0267 5.56272 4.75331 6.34902 4.88035 7.07503C5.00739 7.80127 5.53152 8.44839 6.21557 8.7232Z" fill="#1C4587"/>
<path d="M7.03846 8.90068C7.08613 8.94835 7.14858 8.97218 7.21102 8.97218C7.27347 8.97218 7.33592 8.94835 7.38359 8.90068C7.47893 8.80534 7.47893 8.65089 7.38359 8.55555L7.35999 8.53195C7.26465 8.43661 7.1102 8.43661 7.01486 8.53195C6.91952 8.62729 6.91952 8.78174 7.01486 8.87708L7.03846 8.90068Z" fill="#1C4587"/>
</svg>
