<svg width="25" height="24" viewBox="0 0 25 24" fill="none" xmlns="http://www.w3.org/2000/svg">
<path d="M10.2861 3.94C10.3761 3.398 10.8461 3 11.3961 3H13.9891C14.5391 3 15.0091 3.398 15.0991 3.94L15.3121 5.221C15.3751 5.595 15.6251 5.907 15.9571 6.091C16.0311 6.131 16.1041 6.174 16.1771 6.218C16.5021 6.414 16.8971 6.475 17.2521 6.342L18.4691 5.886C18.7185 5.79221 18.9931 5.78998 19.244 5.87971C19.4949 5.96945 19.7058 6.14531 19.8391 6.376L21.1351 8.623C21.2682 8.8537 21.3151 9.12413 21.2674 9.38617C21.2198 9.6482 21.0808 9.88485 20.8751 10.054L19.8721 10.881C19.5791 11.122 19.4341 11.494 19.4421 11.873C19.4435 11.958 19.4435 12.043 19.4421 12.128C19.4341 12.506 19.5791 12.878 19.8721 13.119L20.8761 13.946C21.3001 14.296 21.4101 14.901 21.1361 15.376L19.8381 17.623C19.7049 17.8536 19.4943 18.0296 19.2436 18.1195C18.9929 18.2094 18.7185 18.2074 18.4691 18.114L17.2521 17.658C16.8971 17.525 16.5021 17.586 16.1761 17.782C16.1036 17.8261 16.0303 17.8688 15.9561 17.91C15.6251 18.093 15.3751 18.405 15.3121 18.779L15.0991 20.06C15.0091 20.603 14.5391 21 13.9891 21H11.3951C10.8451 21 10.3761 20.602 10.2851 20.06L10.0721 18.779C10.0101 18.405 9.7601 18.093 9.4281 17.909C9.35395 17.8681 9.2806 17.8258 9.2081 17.782C8.8831 17.586 8.4881 17.525 8.1321 17.658L6.9151 18.114C6.66583 18.2075 6.39147 18.2096 6.1408 18.1199C5.89013 18.0302 5.67941 17.8545 5.5461 17.624L4.2491 15.377C4.11604 15.1463 4.06915 14.8759 4.11676 14.6138C4.16437 14.3518 4.30339 14.1152 4.5091 13.946L5.5131 13.119C5.8051 12.879 5.9501 12.506 5.9431 12.128C5.94154 12.043 5.94154 11.958 5.9431 11.873C5.9501 11.493 5.8051 11.122 5.5131 10.881L4.5091 10.054C4.30364 9.88489 4.16477 9.64843 4.11717 9.38662C4.06957 9.12481 4.11631 8.8546 4.2491 8.624L5.5461 6.377C5.67929 6.14614 5.89011 5.97006 6.14101 5.88014C6.39191 5.79021 6.66659 5.79229 6.9161 5.886L8.1321 6.342C8.4881 6.475 8.8831 6.414 9.2081 6.218C9.2801 6.174 9.3541 6.132 9.4281 6.09C9.7601 5.907 10.0101 5.595 10.0721 5.221L10.2861 3.94Z" stroke="#1C4587" stroke-width="1.5" stroke-linecap="round" stroke-linejoin="round"/>
<path d="M15.6924 12C15.6924 12.7956 15.3763 13.5587 14.8137 14.1213C14.2511 14.6839 13.488 15 12.6924 15C11.8967 15 11.1337 14.6839 10.5711 14.1213C10.0085 13.5587 9.69238 12.7956 9.69238 12C9.69238 11.2044 10.0085 10.4413 10.5711 9.87868C11.1337 9.31607 11.8967 9 12.6924 9C13.488 9 14.2511 9.31607 14.8137 9.87868C15.3763 10.4413 15.6924 11.2044 15.6924 12Z" stroke="#1C4587" stroke-width="1.5" stroke-linecap="round" stroke-linejoin="round"/>
</svg>
