<svg width="25" height="24" viewBox="0 0 25 24" fill="none" xmlns="http://www.w3.org/2000/svg">
<path d="M18.8516 10.8967C20.2466 10.7007 21.3206 9.50473 21.3236 8.05573C21.3236 6.62773 20.2826 5.44373 18.9176 5.21973" stroke="#1C4587" stroke-width="1.5" stroke-linecap="round" stroke-linejoin="round"/>
<path d="M20.6924 14.2505C22.0434 14.4525 22.9864 14.9255 22.9864 15.9005C22.9864 16.5715 22.5424 17.0075 21.8244 17.2815" stroke="#1C4587" stroke-width="1.5" stroke-linecap="round" stroke-linejoin="round"/>
<path fill-rule="evenodd" clip-rule="evenodd" d="M12.8506 14.6638C9.6366 14.6638 6.8916 15.1508 6.8916 17.0958C6.8916 19.0398 9.6196 19.5408 12.8506 19.5408C16.0646 19.5408 18.8086 19.0588 18.8086 17.1128C18.8086 15.1668 16.0816 14.6638 12.8506 14.6638Z" stroke="#1C4587" stroke-width="1.5" stroke-linecap="round" stroke-linejoin="round"/>
<path fill-rule="evenodd" clip-rule="evenodd" d="M12.8503 11.888C14.9593 11.888 16.6693 10.179 16.6693 8.069C16.6693 5.96 14.9593 4.25 12.8503 4.25C10.7413 4.25 9.03128 5.96 9.03128 8.069C9.02328 10.171 10.7203 11.881 12.8223 11.888H12.8503Z" stroke="#1C4587" stroke-width="1.5" stroke-linecap="round" stroke-linejoin="round"/>
<path d="M6.84895 10.8967C5.45295 10.7007 4.37995 9.50473 4.37695 8.05573C4.37695 6.62773 5.41795 5.44373 6.78295 5.21973" stroke="#1C4587" stroke-width="1.5" stroke-linecap="round" stroke-linejoin="round"/>
<path d="M5.00787 14.2505C3.65687 14.4525 2.71387 14.9255 2.71387 15.9005C2.71387 16.5715 3.15787 17.0075 3.87587 17.2815" stroke="#1C4587" stroke-width="1.5" stroke-linecap="round" stroke-linejoin="round"/>
</svg>
